<svg width="517" height="586" viewBox="0 0 517 586" fill="none" xmlns="http://www.w3.org/2000/svg">
<path opacity="0.025641" d="M256.582 349.06C238.226 259.637 234.887 81.0411 368.375 82.0442" stroke="#BB8D8B" stroke-width="1.4"/>
<path opacity="0.0512821" d="M251.715 347.086C238.122 256.908 244.274 78.5217 377.629 86.4051" stroke="#BB8D8B" stroke-width="1.4"/>
<path opacity="0.0769231" d="M246.848 345.113C238.055 254.427 253.682 76.7386 386.537 91.4807" stroke="#BB8D8B" stroke-width="1.4"/>
<path opacity="0.102564" d="M241.981 343.14C238.013 252.194 263.072 75.6908 395.063 97.2513" stroke="#BB8D8B" stroke-width="1.4"/>
<path opacity="0.128205" d="M237.114 341.167C237.98 250.21 272.403 75.3761 403.169 103.696" stroke="#BB8D8B" stroke-width="1.4"/>
<path opacity="0.153846" d="M232.247 339.193C237.945 248.476 281.638 75.7902 410.819 110.791" stroke="#BB8D8B" stroke-width="1.4"/>
<path opacity="0.179487" d="M227.38 337.22C237.896 246.99 290.738 76.9262 417.982 118.513" stroke="#BB8D8B" stroke-width="1.4"/>
<path opacity="0.205128" d="M222.513 335.247C237.816 245.752 299.663 78.7755 424.62 126.834" stroke="#BB8D8B" stroke-width="1.4"/>
<path opacity="0.230769" d="M217.646 333.273C237.696 244.758 308.378 81.3277 430.705 135.726" stroke="#BB8D8B" stroke-width="1.4"/>
<path opacity="0.25641" d="M212.779 331.3C237.521 244.008 316.844 84.5708 436.207 145.16" stroke="#BB8D8B" stroke-width="1.4"/>
<path opacity="0.282051" d="M207.912 329.327C237.276 243.497 325.023 88.4898 441.095 155.104" stroke="#BB8D8B" stroke-width="1.4"/>
<path opacity="0.307692" d="M203.045 327.354C236.953 243.221 332.883 93.0692 445.345 165.525" stroke="#BB8D8B" stroke-width="1.4"/>
<path opacity="0.333333" d="M198.177 325.38C236.535 243.175 340.386 98.2906 448.929 176.39" stroke="#BB8D8B" stroke-width="1.4"/>
<path opacity="0.358974" d="M193.311 323.407C236.014 243.355 347.5 104.134 451.828 187.664" stroke="#BB8D8B" stroke-width="1.4"/>
<path opacity="0.384615" d="M188.444 321.434C235.374 243.755 354.191 110.579 454.018 199.309" stroke="#BB8D8B" stroke-width="1.4"/>
<path opacity="0.410256" d="M183.576 319.46C234.606 244.367 360.428 117.602 455.479 211.289" stroke="#BB8D8B" stroke-width="1.4"/>
<path opacity="0.435897" d="M178.71 317.487C233.699 245.185 366.18 125.178 456.196 223.566" stroke="#BB8D8B" stroke-width="1.4"/>
<path opacity="0.461538" d="M173.843 315.514C232.64 246.201 371.418 133.281 456.151 236.1" stroke="#BB8D8B" stroke-width="1.4"/>
<path opacity="0.487179" d="M168.976 313.541C231.42 247.408 376.115 141.884 455.333 248.852" stroke="#BB8D8B" stroke-width="1.4"/>
<path opacity="0.512821" d="M164.109 311.567C230.03 248.795 380.244 150.957 453.73 261.781" stroke="#BB8D8B" stroke-width="1.4"/>
<path opacity="0.538462" d="M159.242 309.594C228.459 250.355 383.78 160.471 451.334 274.847" stroke="#BB8D8B" stroke-width="1.4"/>
<path opacity="0.564103" d="M154.375 307.621C226.697 252.077 386.701 170.393 448.136 288.007" stroke="#BB8D8B" stroke-width="1.4"/>
<path opacity="0.589744" d="M149.508 305.647C224.738 253.951 388.986 180.691 444.134 301.222" stroke="#BB8D8B" stroke-width="1.4"/>
<path opacity="0.615385" d="M144.641 303.674C222.573 255.967 390.614 191.332 439.324 314.448" stroke="#BB8D8B" stroke-width="1.4"/>
<path opacity="0.641026" d="M139.773 301.701C220.193 258.114 391.567 202.281 433.706 327.646" stroke="#BB8D8B" stroke-width="1.4"/>
<path opacity="0.666667" d="M134.907 299.727C217.594 260.38 391.831 213.501 427.283 340.771" stroke="#BB8D8B" stroke-width="1.4"/>
<path opacity="0.692308" d="M130.04 297.754C214.768 262.754 391.39 224.959 420.058 353.785" stroke="#BB8D8B" stroke-width="1.4"/>
<path opacity="0.717949" d="M125.172 295.781C211.709 265.224 390.233 236.616 412.038 366.645" stroke="#BB8D8B" stroke-width="1.4"/>
<path opacity="0.74359" d="M120.306 293.808C208.414 267.777 388.35 248.435 403.232 379.311" stroke="#BB8D8B" stroke-width="1.4"/>
<path opacity="0.769231" d="M115.439 291.834C204.877 270.402 385.732 260.379 393.651 391.742" stroke="#BB8D8B" stroke-width="1.4"/>
<path opacity="0.794872" d="M110.571 289.861C201.094 273.086 382.372 272.409 383.306 403.899" stroke="#BB8D8B" stroke-width="1.4"/>
<path opacity="0.820513" d="M105.705 287.888C197.064 275.816 378.269 284.486 372.215 415.744" stroke="#BB8D8B" stroke-width="1.4"/>
<path opacity="0.846154" d="M100.838 285.914C192.783 278.579 373.417 296.573 360.393 427.239" stroke="#BB8D8B" stroke-width="1.4"/>
<path opacity="0.871795" d="M95.9707 283.941C188.25 281.362 367.819 308.631 347.859 438.346" stroke="#BB8D8B" stroke-width="1.4"/>
<path opacity="0.897436" d="M91.104 281.968C183.465 284.152 361.476 320.621 334.636 449.03" stroke="#BB8D8B" stroke-width="1.4"/>
<path opacity="0.923077" d="M86.2368 279.995C178.425 286.936 354.391 332.505 320.744 459.256" stroke="#BB8D8B" stroke-width="1.4"/>
<path opacity="0.948718" d="M81.3696 278.021C173.134 289.701 346.572 344.246 306.21 468.991" stroke="#BB8D8B" stroke-width="1.4"/>
<path opacity="0.974359" d="M76.5029 276.048C167.591 292.433 338.025 355.804 291.06 478.202" stroke="#BB8D8B" stroke-width="1.4"/>
<path d="M71.6357 274.075C161.798 295.122 328.762 367.144 275.321 486.859" stroke="#BB8D8B" stroke-width="1.4"/>
</svg>
